<svg width="45" height="45" viewBox="0 0 45 45" fill="none" xmlns="http://www.w3.org/2000/svg">
<path d="M16.92 31V28.72L22.392 22.888C23.128 22.088 23.656 21.384 23.976 20.776C24.296 20.152 24.456 19.52 24.456 18.88C24.456 17.248 23.472 16.432 21.504 16.432C19.968 16.432 18.552 17.008 17.256 18.16L16.224 15.856C16.896 15.248 17.736 14.76 18.744 14.392C19.752 14.024 20.8 13.84 21.888 13.84C23.696 13.84 25.08 14.248 26.04 15.064C27.016 15.88 27.504 17.048 27.504 18.568C27.504 19.592 27.256 20.576 26.76 21.52C26.28 22.464 25.52 23.48 24.48 24.568L20.76 28.456H28.152V31H16.92Z" fill="black"/>
<circle cx="22.5" cy="22.5" r="21.5" stroke="black" stroke-width="2"/>
</svg>
