<svg width="195" height="108" viewBox="0 0 195 108" fill="none" xmlns="http://www.w3.org/2000/svg">
<path d="M31.1733 96.6757C20.7487 86.1078 16.1445 46.7539 15.1455 28.3979H179.854C178.551 48.6638 176.276 86.8717 165.225 96.6757C154.175 106.48 117.903 105.653 102.753 105.971C89.3728 105.971 41.5979 107.244 31.1733 96.6757Z" stroke="black" stroke-width="2"/>
<rect x="1" y="1" width="193" height="28.2913" rx="10.3592" fill="#D1FFD3" stroke="black" stroke-width="2"/>
<path d="M38 30.0195L38 83.0195" stroke="black" stroke-width="2" stroke-linecap="round"/>
<path d="M56.7964 29.3979L56.7964 97.5533" stroke="black" stroke-width="2" stroke-linecap="round"/>
<path d="M77.6216 29.3979L77.6216 99.4465" stroke="black" stroke-width="2" stroke-linecap="round"/>
<path d="M96.5532 29.3979L96.5532 101.34" stroke="black" stroke-width="2" stroke-linecap="round"/>
<path d="M115.485 29.3979L115.485 99.4465" stroke="black" stroke-width="2" stroke-linecap="round"/>
<path d="M136.311 29.3979L136.311 97.5533" stroke="black" stroke-width="2" stroke-linecap="round"/>
<path d="M155 30.0195L155 83.0195" stroke="black" stroke-width="2" stroke-linecap="round"/>
<path d="M17.0391 45.437L177.961 45.437" stroke="black" stroke-width="2" stroke-linecap="round"/>
<path d="M20.8252 64.3691L176.068 64.3691" stroke="black" stroke-width="2" stroke-linecap="round"/>
<path d="M25 83.0195H172" stroke="black" stroke-width="2" stroke-linecap="round"/>
</svg>
